<svg width="520" height="320" viewBox="0 0 520 320" fill="none" xmlns="http://www.w3.org/2000/svg">
<path d="M0 0H20V320H0V0Z" fill="white" fill-opacity="0.05"/>
<path d="M52 0H84V320H52V0Z" fill="white" fill-opacity="0.05"/>
<path d="M116 0H148V320H116V0Z" fill="white" fill-opacity="0.05"/>
<path d="M180 0H212V320H180V0Z" fill="white" fill-opacity="0.05"/>
<path d="M244 0H276V320H244V0Z" fill="white" fill-opacity="0.05"/>
<path d="M308 0H340V320H308V0Z" fill="white" fill-opacity="0.05"/>
<path d="M372 0H404V320H372V0Z" fill="white" fill-opacity="0.05"/>
<path d="M436 0H468V320H436V0Z" fill="white" fill-opacity="0.05"/>
<path d="M500 0H520V320H500V0Z" fill="white" fill-opacity="0.05"/>
<path fill-rule="evenodd" clip-rule="evenodd" d="M510 10H10V310H510V10ZM8 8V312H512V8H8Z" fill="#8EAA56"/>
<path fill-rule="evenodd" clip-rule="evenodd" d="M78 82H10V238H78V82ZM8 80V240H80V80H8Z" fill="#8EAA56"/>
<path fill-rule="evenodd" clip-rule="evenodd" d="M34 130H10V190H34V130ZM8 128V192H36V128H8Z" fill="#8EAA56"/>
<path fill-rule="evenodd" clip-rule="evenodd" d="M96 159.992C96 168.829 93.3137 176.828 88.9706 182.619C86.7448 185.587 84.0838 187.975 81.1263 189.597C80.7554 189.801 80.3799 189.992 80 190.171C79.3459 190.479 78.6787 190.751 78 190.984V188.854C78.2555 188.755 78.5094 188.649 78.7614 188.537C81.9911 187.108 84.9326 184.67 87.3706 181.419C87.9903 180.593 88.5753 179.716 89.1217 178.794C92.1548 173.675 94 167.148 94 159.992C94 152.835 92.1546 146.308 89.1212 141.189C88.5749 140.267 87.9901 139.39 87.3706 138.564C84.9327 135.314 81.9913 132.876 78.7618 131.446C78.5096 131.335 78.2556 131.229 78 131.13V129C78.6787 129.233 79.3459 129.504 80 129.813C80.3803 129.992 80.7563 130.184 81.1275 130.387C84.0846 132.01 86.7451 134.397 88.9706 137.364C93.3137 143.155 96 151.155 96 159.992Z" fill="#8EAA56"/>
<path d="M58 160C58 161.105 57.1046 162 56 162C54.8954 162 54 161.105 54 160C54 158.895 54.8954 158 56 158C57.1046 158 58 158.895 58 160Z" fill="#8EAA56"/>
<path fill-rule="evenodd" clip-rule="evenodd" d="M510 82H442V238H510V82ZM440 80V240H512V80H440Z" fill="#8EAA56"/>
<path fill-rule="evenodd" clip-rule="evenodd" d="M510 130H486V190H510V130ZM484 128V192H512V128H484Z" fill="#8EAA56"/>
<path fill-rule="evenodd" clip-rule="evenodd" d="M424 160C424 168.837 426.686 176.837 431.029 182.628C433.255 185.595 435.916 187.983 438.874 189.605C439.245 189.809 439.62 190 440 190.179C440.654 190.488 441.321 190.759 442 190.992V188.863C441.745 188.764 441.491 188.657 441.239 188.546C438.009 187.117 435.067 184.678 432.629 181.428C432.01 180.601 431.425 179.725 430.878 178.803C427.845 173.684 426 167.157 426 160C426 152.843 427.845 146.316 430.879 141.197C431.425 140.275 432.01 139.399 432.629 138.573C435.067 135.322 438.009 132.884 441.238 131.455C441.49 131.343 441.744 131.238 442 131.138V129.008C441.321 129.241 440.654 129.513 440 129.821C439.62 130 439.244 130.192 438.872 130.396C435.915 132.018 433.255 134.405 431.029 137.373C426.686 143.164 424 151.163 424 160Z" fill="#8EAA56"/>
<path d="M466 160C466 161.105 465.105 162 464 162C462.895 162 462 161.105 462 160C462 158.895 462.895 158 464 158C465.105 158 466 158.895 466 160Z" fill="#8EAA56"/>
<path fill-rule="evenodd" clip-rule="evenodd" d="M504.252 10C504.088 9.36076 504 8.6906 504 8H506C506 11.3137 508.686 14 512 14V16C511.309 16 510.639 15.9125 510 15.748C507.189 15.0244 504.976 12.8112 504.252 10ZM10 15.748C9.36076 15.9125 8.6906 16 8 16V14C11.3137 14 14 11.3137 14 8H16C16 8.6906 15.9125 9.36076 15.748 10C15.0244 12.8112 12.8112 15.0244 10 15.748ZM506 312H504C504 311.309 504.088 310.639 504.252 310C504.976 307.189 507.189 304.976 510 304.252C510.639 304.088 511.309 304 512 304V306C508.686 306 506 308.686 506 312ZM8 306C11.3137 306 14 308.686 14 312H16C16 311.309 15.9125 310.639 15.748 310C15.0244 307.189 12.8112 304.976 10 304.252C9.36076 304.088 8.6906 304 8 304V306Z" fill="#8EAA56"/>
<path fill-rule="evenodd" clip-rule="evenodd" d="M259 312V8H261V312H259Z" fill="#8EAA56"/>
<path fill-rule="evenodd" clip-rule="evenodd" d="M260 202C283.196 202 302 183.196 302 160C302 136.804 283.196 118 260 118C236.804 118 218 136.804 218 160C218 183.196 236.804 202 260 202ZM260 204C284.301 204 304 184.301 304 160C304 135.699 284.301 116 260 116C235.699 116 216 135.699 216 160C216 184.301 235.699 204 260 204Z" fill="#8EAA56"/>
<path d="M264 160C264 162.209 262.209 164 260 164C257.791 164 256 162.209 256 160C256 157.791 257.791 156 260 156C262.209 156 264 157.791 264 160Z" fill="#8EAA56"/>
</svg>
